<?xml version="1.0" encoding="UTF-8"?>
<svg version="1.1" xmlns="http://www.w3.org/2000/svg" width="24" height="24">
<path d="M0 0 C0.33 1.32 0.66 2.64 1 4 C-0.32 3.67 -1.64 3.34 -3 3 C-2.67 6.3 -2.34 9.6 -2 13 C0.475 13.99 0.475 13.99 3 15 C3 12.36 3 9.72 3 7 C3.61875 7.185625 4.2375 7.37125 4.875 7.5625 C7.04160178 8.23686176 7.04160178 8.23686176 9 7 C9 10.3 9 13.6 9 17 C5.37918537 18.20693821 2.0749281 18.10782079 -1.6875 18.0625 C-5.3071875 18.0315625 -5.3071875 18.0315625 -9 18 C-9 12.39 -9 6.78 -9 1 C-5.8035914 -0.06546953 -3.34252724 -0.07427838 0 0 Z " fill="#FFFFFF" transform="translate(12,3)"/>
<path d="M0 0 C3 0.125 3 0.125 4 1.125 C4.30867281 4.59756915 4.38701339 6.5122288 2.5 9.5 C2.005 10.03625 1.51 10.5725 1 11.125 C-2.875 9.375 -2.875 9.375 -4 7.125 C-4.125 4.0625 -4.125 4.0625 -4 1.125 C-3 0.125 -3 0.125 0 0 Z M-1 3.125 C-1 3.785 -1 4.445 -1 5.125 C-0.34 5.125 0.32 5.125 1 5.125 C1 4.465 1 3.805 1 3.125 C0.34 3.125 -0.32 3.125 -1 3.125 Z " fill="#FFFFFF" transform="translate(18,-0.125)"/>
</svg>
